<?xml version="1.0" standalone="no"?>
<!DOCTYPE svg PUBLIC "-//W3C//DTD SVG 20010904//EN"
 "http://www.w3.org/TR/2001/REC-SVG-20010904/DTD/svg10.dtd">
<svg version="1.0" xmlns="http://www.w3.org/2000/svg"
 width="412.000000pt" height="442.000000pt" viewBox="0 0 412.000000 442.000000"
 preserveAspectRatio="xMidYMid meet">
<metadata>
Created by potrace 1.16, written by Peter Selinger 2001-2019
</metadata>
<g transform="translate(0.000000,442.000000) scale(0.100000,-0.100000)"
fill="#000000" stroke="none">
<path d="M1850 3804 c-14 -2 -59 -9 -100 -15 -158 -23 -364 -107 -520 -212
-98 -66 -301 -270 -374 -375 -111 -160 -197 -358 -242 -552 -100 -439 -17
-913 223 -1272 190 -284 434 -474 739 -574 562 -184 1175 44 1526 568 24 38
48 65 51 61 4 -3 7 2 7 12 0 10 20 59 44 109 223 458 220 998 -8 1457 -203
406 -563 691 -980 775 -71 14 -319 27 -366 18z m32 -35 c-13 -5 -21 -13 -17
-18 3 -5 -3 -12 -14 -16 -10 -3 -49 -38 -85 -77 -67 -72 -86 -111 -86 -178 0
-24 -6 -39 -20 -48 -12 -7 -20 -23 -20 -40 0 -15 -5 -33 -12 -40 -7 -7 -8 -12
-4 -12 5 0 3 -7 -4 -15 -7 -8 -15 -47 -18 -85 -4 -57 -8 -70 -22 -70 -33 0
-52 -37 -61 -117 -4 -43 -8 -79 -8 -81 -1 -2 -5 0 -11 3 -12 7 -47 -10 -77
-38 -18 -16 -23 -31 -23 -68 0 -26 4 -50 8 -53 5 -3 4 -29 -1 -58 -5 -29 -11
-110 -14 -180 l-4 -128 -30 0 c-20 0 -52 -17 -102 -54 -76 -57 -117 -103 -117
-134 0 -10 -11 -29 -25 -42 -14 -13 -25 -32 -25 -43 0 -10 -22 -44 -50 -76
-54 -62 -120 -180 -120 -214 0 -11 -9 -30 -20 -42 -11 -11 -45 -72 -77 -134
-32 -63 -62 -113 -68 -112 -13 2 -57 113 -90 226 -132 455 -56 953 206 1346
77 115 264 306 369 376 174 116 383 198 565 222 93 11 104 11 77 0z m488 -56
c93 -30 229 -98 329 -166 107 -71 293 -261 370 -376 271 -408 342 -921 194
-1386 -31 -98 -102 -265 -113 -265 -13 0 -110 117 -110 132 0 8 -18 29 -39 46
-22 18 -41 42 -43 54 -3 22 -23 36 -88 60 -35 12 -190 158 -202 190 -4 9 -29
23 -57 33 -28 9 -51 23 -51 30 0 7 -7 15 -15 19 -8 3 -15 12 -15 19 0 8 -21
34 -46 58 -25 24 -54 52 -63 61 -9 9 -29 22 -45 27 -25 10 -28 15 -23 49 3 20
13 62 22 92 24 80 35 143 44 250 6 74 15 110 40 165 31 68 32 73 25 162 -4 58
-11 97 -20 104 -10 8 -12 26 -8 68 4 31 1 83 -6 116 -7 33 -16 83 -20 111 -4
27 -20 73 -34 102 -14 28 -26 57 -26 65 0 7 -11 23 -25 35 -14 12 -25 29 -25
38 0 9 -20 41 -45 70 -72 84 -63 88 95 37z m-280 -43 c10 0 21 6 24 13 3 9 9
7 19 -5 8 -10 23 -18 34 -18 11 0 39 -20 62 -45 23 -25 45 -45 50 -45 5 0 14
-13 20 -30 5 -16 14 -30 19 -30 13 0 37 -61 34 -82 -2 -10 3 -18 11 -18 8 0
18 -12 22 -27 9 -38 23 -259 19 -306 -3 -31 0 -37 14 -35 12 2 17 -4 18 -22 0
-14 4 -46 8 -72 6 -38 4 -48 -7 -48 -7 0 -24 -11 -36 -24 -21 -22 -22 -33 -22
-147 1 -124 -4 -159 -41 -299 -11 -41 -23 -97 -27 -124 -7 -45 -29 -76 -54
-76 -14 0 -48 -42 -43 -54 2 -6 8 -10 14 -9 6 2 9 -4 6 -12 -4 -8 -10 -15 -14
-15 -4 0 -10 -10 -14 -23 -13 -54 -116 -140 -116 -97 0 6 -8 10 -18 10 -10 0
-27 7 -38 15 -19 14 -18 14 4 15 12 0 22 -4 22 -10 0 -5 12 2 26 15 14 13 39
30 54 37 16 7 31 21 34 31 2 11 9 16 15 13 5 -4 12 -2 16 4 3 5 3 10 -2 11
-49 4 -79 11 -82 20 -2 7 -7 6 -12 -2 -8 -12 -11 -11 -20 1 -8 11 -12 12 -16
3 -3 -10 -8 -10 -19 1 -8 8 -14 19 -14 24 0 5 -18 24 -40 42 -22 18 -40 40
-40 49 -1 20 -29 55 -52 63 -12 5 -18 1 -20 -15 -2 -12 -10 11 -17 50 -11 62
-11 82 2 135 12 53 15 58 16 28 2 -42 7 -51 46 -70 17 -8 33 -19 37 -25 5 -6
8 -4 8 5 0 10 3 11 8 4 4 -6 24 -14 44 -18 32 -6 37 -4 32 9 -5 12 3 15 44 15
27 0 63 -7 78 -15 32 -17 104 -20 104 -5 0 14 -35 30 -64 30 -13 0 -32 7 -40
16 -12 12 -16 12 -17 2 0 -10 -2 -10 -6 0 -6 14 -33 16 -33 2 0 -16 -27 -12
-34 5 -3 10 1 18 12 22 9 3 36 26 60 51 40 43 53 72 32 72 -5 0 -10 -6 -10
-14 0 -8 -6 -16 -12 -19 -17 -6 -38 3 -38 15 0 6 -6 16 -14 22 -8 6 -16 40
-20 79 -5 55 -4 68 9 73 19 8 19 75 0 129 -10 25 -13 56 -9 83 4 28 3 42 -5
42 -6 0 -12 8 -12 18 -1 16 -2 16 -6 0 -6 -24 -12 -23 -42 11 -14 15 -36 32
-48 35 -13 4 -23 14 -23 22 0 8 -7 17 -15 20 -20 8 -19 48 1 65 16 13 16 14 0
230 -3 42 -6 80 -7 85 -4 25 16 53 41 59 16 4 30 14 32 23 2 9 12 17 23 17 14
0 19 6 18 20 -1 11 0 14 3 8 3 -7 14 -13 24 -13z m-55 -725 c-3 -16 -8 -62 -9
-100 -3 -48 -10 -81 -25 -105 -11 -20 -27 -69 -36 -110 -17 -83 -25 -99 -25
-52 0 32 -30 60 -50 47 -5 -3 -8 0 -5 7 2 7 -1 47 -9 88 -10 60 -16 74 -29 72
-14 -2 -17 6 -17 43 0 28 -4 45 -12 45 -6 0 -8 3 -5 6 4 4 13 1 22 -6 16 -14
18 -10 9 14 -3 9 -15 16 -25 16 -23 0 -25 13 -4 30 12 10 15 10 15 0 0 -9 10
-11 30 -6 22 4 32 1 36 -9 8 -19 50 -19 58 0 8 21 23 19 29 -5 4 -17 0 -20
-31 -20 -59 0 -74 -17 -21 -24 71 -8 75 -7 76 33 0 26 -1 30 -7 16 -6 -17 -7
-16 -14 8 -9 36 -4 42 29 42 24 0 26 -3 20 -30z m285 -776 c0 -9 7 -19 15 -23
8 -3 15 -15 15 -26 0 -11 4 -20 9 -20 5 0 12 -13 16 -30 4 -16 10 -30 15 -30
5 0 11 -13 15 -29 3 -16 15 -46 26 -67 10 -21 19 -49 19 -61 0 -13 5 -23 10
-23 6 0 10 -7 10 -16 0 -17 23 -44 37 -44 5 0 10 14 11 30 1 17 -2 30 -8 30
-5 0 -10 7 -10 15 0 9 -7 18 -15 21 -8 4 -15 17 -15 31 0 18 4 24 14 20 10 -4
13 -1 9 9 -3 8 -12 13 -19 10 -10 -4 -14 5 -15 32 0 30 -2 33 -9 17 -5 -11 -9
-15 -9 -8 -1 6 -6 24 -13 40 -6 15 -10 33 -9 40 1 6 -8 14 -19 18 -23 7 -28
38 -4 33 8 -2 14 -6 12 -9 -2 -3 3 -13 10 -22 8 -9 11 -20 9 -24 -3 -5 1 -17
9 -28 13 -17 16 -18 25 -5 9 13 10 13 6 -1 -3 -9 -1 -22 4 -30 8 -12 10 -12
19 1 8 13 10 12 10 -3 0 -11 16 -35 34 -53 19 -19 38 -44 41 -54 4 -11 10 -20
15 -20 4 0 11 -11 14 -25 4 -14 11 -25 16 -25 6 0 10 -7 10 -15 0 -8 7 -15 15
-15 12 0 13 4 5 19 -13 25 -13 51 0 51 6 0 10 -13 10 -29 0 -16 7 -34 15 -41
8 -7 15 -18 15 -25 0 -7 11 -15 25 -17 22 -5 24 -3 13 11 -12 14 -11 14 5 2 9
-8 25 -30 34 -50 9 -20 28 -52 43 -71 14 -19 32 -48 40 -65 8 -16 16 -33 18
-37 2 -5 -2 -8 -7 -8 -6 0 -11 8 -11 18 -1 19 -30 63 -30 45 0 -22 20 -64 40
-86 20 -20 21 -20 14 -2 -4 11 -4 17 1 13 4 -4 9 -22 11 -40 2 -17 10 -35 17
-40 6 -4 -74 -8 -178 -8 l-190 0 -17 58 c-32 110 -37 136 -29 142 15 10 21 40
7 40 -8 0 -16 16 -20 39 -3 22 -17 52 -30 68 -17 20 -23 36 -19 56 3 16 1 27
-6 27 -6 0 -11 14 -11 30 0 17 -4 30 -9 30 -4 0 -14 20 -21 45 -7 25 -15 45
-19 45 -3 0 -14 21 -24 48 -35 90 -36 90 -36 50 -1 -43 15 -118 35 -166 8 -18
14 -42 14 -52 0 -11 4 -20 9 -20 5 0 11 -8 14 -17 2 -10 8 -26 12 -36 7 -17 6
-18 -13 -6 -11 7 -23 22 -25 33 -3 12 -17 66 -31 120 -30 115 -37 256 -11 222
8 -11 15 -27 15 -37z m-877 1 c21 0 47 -34 47 -62 0 -15 -4 -28 -10 -28 -15 0
-12 -40 5 -56 13 -14 15 -14 15 0 0 9 7 16 15 16 19 0 19 9 -2 32 -9 10 -13
21 -9 25 4 4 11 1 16 -7 7 -11 10 -12 10 -2 0 7 5 10 10 7 6 -4 8 -11 4 -16
-3 -5 0 -8 8 -7 9 2 13 -12 14 -54 0 -35 7 -66 17 -82 10 -14 17 -36 17 -48 0
-13 5 -30 10 -38 8 -12 10 -10 11 10 0 15 6 4 15 -28 8 -30 11 -59 7 -65 -3
-7 -2 -9 2 -4 10 8 34 -25 71 -95 21 -42 29 -48 55 -48 l31 0 -7 66 c-4 45
-18 92 -42 142 -58 125 -75 182 -53 182 6 0 10 -10 10 -22 0 -12 7 -29 16 -39
9 -10 19 -39 21 -64 3 -25 10 -45 14 -45 5 0 9 -7 9 -16 0 -8 4 -13 9 -10 4 3
11 -15 15 -40 4 -33 14 -54 36 -74 16 -15 30 -35 30 -43 0 -22 21 -32 31 -16
5 8 6 -7 3 -37 -4 -30 -2 -59 4 -70 6 -11 12 -13 12 -6 0 17 20 15 20 -2 0 -8
-17 -18 -37 -24 -21 -5 -30 -10 -20 -11 23 -1 22 -21 -2 -21 -10 0 -46 -3 -80
-6 -55 -6 -61 -5 -61 12 0 16 -7 19 -42 19 -32 0 -44 -4 -46 -17 -2 -12 5 -18
30 -21 18 -2 -5 -4 -52 -4 -47 0 -70 2 -52 4 18 3 32 10 32 18 0 7 9 17 21 20
42 13 9 16 -45 4 -34 -7 -56 -17 -56 -26 0 -14 -16 -16 -72 -7 -37 6 -37 7
-23 35 8 15 13 36 10 46 -3 10 3 1 13 -20 28 -57 40 -66 57 -43 9 11 12 30 9
45 -10 46 -46 156 -55 167 -5 6 -4 25 1 43 7 27 7 32 -5 27 -10 -4 -15 1 -15
14 0 11 -5 20 -11 20 -7 0 1 12 16 26 24 22 27 29 17 45 -7 10 -12 29 -12 41
-1 29 -21 56 -37 51 -7 -3 -13 -9 -13 -14 0 -4 6 -6 14 -3 9 3 15 -4 18 -20 3
-14 2 -26 -2 -26 -13 0 -50 60 -50 82 0 13 -5 30 -10 38 -9 13 -11 13 -20 0
-8 -12 -10 -8 -8 15 2 19 9 30 18 30 8 0 19 5 23 10 4 6 5 -1 2 -15 -5 -21 -2
-26 16 -27 12 -1 26 -8 31 -15 11 -17 28 7 28 40 0 23 -25 31 -33 10 -3 -7 -6
-3 -6 8 -1 13 -9 24 -21 27 -11 3 -20 12 -20 20 0 9 9 19 20 22 12 4 20 16 21
28 0 12 3 16 6 10 2 -7 10 -13 16 -13z m397 -47 c0 -13 4 -23 9 -23 5 0 12 -8
15 -17 4 -12 18 -19 43 -21 21 -1 40 -7 41 -12 2 -6 13 -10 25 -10 12 0 40
-11 62 -25 47 -29 92 -31 122 -6 11 10 37 43 57 74 20 30 40 58 44 61 5 3 12
-42 16 -100 5 -86 4 -109 -9 -127 -23 -33 -19 -47 14 -47 21 0 32 -6 36 -21 4
-11 23 -27 42 -36 20 -8 42 -21 50 -29 8 -8 19 -11 25 -8 7 4 8 2 4 -5 -9 -14
2 -53 13 -46 5 2 8 -6 8 -18 -1 -52 17 -154 34 -195 11 -24 19 -48 19 -53 0
-5 -107 -8 -257 -7 -142 1 -225 4 -185 5 55 3 72 7 72 18 0 8 5 15 10 15 6 0
10 -7 10 -15 0 -22 50 -20 51 3 1 16 2 16 6 0 4 -14 15 -18 58 -18 l53 0 -20
78 c-11 42 -24 82 -30 89 -5 7 -8 27 -6 45 3 34 3 34 -54 37 -20 1 -32 9 -43
31 -9 17 -21 30 -27 30 -14 0 -108 95 -108 109 0 6 -9 15 -20 21 -11 6 -20 17
-20 25 0 8 -12 21 -27 29 -16 8 -36 24 -46 36 -10 11 -22 18 -27 15 -6 -3 -10
1 -10 9 0 8 -9 18 -20 21 -11 3 -20 12 -20 18 0 6 -11 21 -23 32 -13 11 -27
34 -30 51 -6 31 -5 31 18 20 16 -7 25 -19 25 -33z m1250 -709 c0 -22 -103
-148 -199 -245 -203 -204 -410 -317 -684 -376 -113 -24 -361 -24 -474 0 -180
38 -336 105 -487 207 -123 82 -297 258 -371 374 l-19 28 565 0 c533 0 1645 11
1662 16 4 1 7 0 7 -4z"/>
<path d="M2334 3061 c-15 -13 -25 -16 -37 -10 -16 10 -57 -7 -57 -23 0 -19
-38 -6 -44 15 -6 20 -7 20 -17 4 -5 -9 -8 -36 -5 -60 2 -23 5 -48 5 -54 1 -8
11 -11 31 -6 19 3 30 1 30 -6 0 -6 11 -11 25 -11 14 0 25 -6 25 -12 0 -10 3
-9 9 1 7 11 9 11 14 0 3 -8 6 -4 6 9 1 12 8 25 16 28 8 3 17 20 19 37 18 117
16 122 -20 88z"/>
</g>
</svg>
